<?xml version="1.0" standalone="no"?>
<!DOCTYPE svg PUBLIC "-//W3C//DTD SVG 20010904//EN"
 "http://www.w3.org/TR/2001/REC-SVG-20010904/DTD/svg10.dtd">
<svg version="1.0" xmlns="http://www.w3.org/2000/svg"
 width="512.000000pt" height="512.000000pt" viewBox="0 0 512.000000 512.000000"
 preserveAspectRatio="xMidYMid meet">

<g transform="translate(0.000000,512.000000) scale(0.100000,-0.100000)"
fill="#000000" stroke="none">
<path d="M394 3743 c-49 -9 -59 -36 -63 -169 l-3 -124 -117 0 c-138 0 -183
-10 -199 -46 -17 -36 -17 -1166 -1 -1197 16 -29 28 -37 64 -37 76 0 75 -10 75
589 l0 531 238 1 c263 0 300 6 316 52 25 69 -25 105 -146 106 l-68 1 0 70 0
70 2070 0 2070 0 0 -70 0 -70 -1849 -2 c-1802 -3 -1849 -3 -1870 -22 -29 -26
-29 -86 0 -112 21 -19 71 -19 2040 -22 l2019 -2 0 -730 0 -730 -237 -1 c-264
0 -301 -6 -317 -51 -25 -70 25 -106 147 -107 l67 -1 0 -70 0 -70 -2070 0
-2070 0 0 70 0 70 1828 1 c1388 0 1835 3 1862 12 67 23 67 111 0 134 -27 9
-512 12 -2032 12 l-1998 1 0 51 c0 78 -21 109 -75 109 -36 0 -48 -8 -64 -37
-14 -28 -14 -205 1 -237 16 -36 61 -46 199 -46 l117 0 3 -125 c4 -114 6 -126
27 -147 l23 -23 2179 0 2179 0 23 23 c21 21 23 33 27 147 l3 125 117 0 c138 0
183 10 199 46 17 36 17 1652 0 1688 -16 36 -61 46 -199 46 l-117 0 -3 125 c-4
114 -6 126 -27 147 l-23 23 -2162 1 c-1189 1 -2172 -1 -2183 -3z"/>
<path d="M1265 2950 c-54 -17 -55 -22 -55 -302 0 -245 1 -259 20 -278 14 -14
33 -20 65 -20 l45 0 0 -64 c0 -54 4 -70 24 -93 l24 -28 236 0 c282 0 275 -3
284 114 l5 71 42 0 c30 0 47 6 61 21 18 20 19 39 19 280 0 256 0 259 -23 281
-23 23 -23 23 -370 25 -191 1 -360 -2 -377 -7z m625 -299 l0 -148 -49 -7 c-65
-9 -82 -29 -88 -111 l-6 -65 -128 0 -129 0 0 63 c0 35 -6 69 -14 79 -15 20
-58 38 -92 38 l-24 0 0 150 0 150 265 0 265 0 0 -149z"/>
<path d="M2195 2950 c-54 -17 -55 -22 -55 -300 0 -293 -1 -291 76 -299 l49 -6
5 -70 c3 -38 9 -75 13 -82 16 -24 86 -33 267 -33 181 0 251 9 267 33 4 7 10
44 13 82 l5 70 46 3 c84 5 84 5 84 303 0 256 0 259 -23 281 -23 23 -23 23
-370 25 -191 1 -360 -2 -377 -7z m625 -299 l0 -148 -49 -7 c-66 -9 -84 -31
-89 -112 l-4 -64 -129 0 -129 0 0 59 c0 76 -23 107 -85 117 l-45 6 0 149 0
149 265 0 265 0 0 -149z"/>
<path d="M3124 2953 c-12 -2 -30 -13 -40 -25 -18 -18 -19 -41 -19 -278 0 -297
0 -297 84 -302 l46 -3 5 -70 c3 -38 9 -75 13 -82 16 -24 85 -33 267 -33 263 0
279 7 280 123 l0 67 45 0 c32 0 51 6 65 20 19 19 20 33 20 276 0 153 -4 263
-10 274 -6 11 -27 24 -48 30 -35 9 -660 13 -708 3z m616 -302 l0 -148 -42 -6
c-63 -8 -88 -42 -88 -118 l0 -59 -129 0 -128 0 -6 65 c-6 82 -23 102 -88 111
l-49 7 0 148 0 149 265 0 265 0 0 -149z"/>
<path d="M4044 2949 c-50 -14 -54 -36 -54 -303 0 -231 1 -245 21 -270 16 -21
29 -26 64 -26 l43 0 4 -70 c3 -56 8 -75 26 -93 22 -22 27 -22 257 -22 230 0
235 0 257 22 18 18 23 37 26 93 l4 70 43 0 c35 0 48 5 64 26 20 25 21 39 21
270 0 163 -4 251 -12 268 -7 17 -24 30 -47 36 -45 12 -674 12 -717 -1z m626
-299 l0 -150 -24 0 c-37 0 -86 -20 -96 -40 -6 -10 -10 -46 -10 -79 l0 -61
-135 0 -135 0 0 61 c0 33 -4 69 -10 79 -10 20 -59 40 -96 40 l-24 0 0 150 0
150 265 0 265 0 0 -150z"/>
<path d="M366 2919 c-36 -28 -36 -80 0 -108 26 -20 38 -21 329 -21 291 0 303
1 329 21 34 27 36 77 3 107 -23 22 -29 22 -329 22 -294 0 -306 -1 -332 -21z"/>
<path d="M383 2730 c-46 -19 -57 -83 -20 -118 23 -22 29 -22 335 -22 299 0
313 1 332 20 27 27 26 81 -1 106 -20 18 -42 19 -323 21 -165 1 -311 -2 -323
-7z"/>
<path d="M362 2507 c-27 -29 -28 -67 -3 -98 l19 -24 315 0 c296 0 316 1 336
19 27 25 28 79 1 106 -19 19 -33 20 -333 20 l-314 0 -21 -23z"/>
<path d="M366 2309 c-36 -28 -36 -80 0 -108 26 -20 38 -21 334 -21 l307 0 21
23 c31 33 29 80 -4 106 -26 20 -38 21 -329 21 -291 0 -303 -1 -329 -21z"/>
</g>
</svg>
